<mxfile host="app.diagrams.net" modified="2023-10-20T04:58:32.824Z" agent="Mozilla/5.0 (Macintosh; Intel Mac OS X 10_15_7) AppleWebKit/605.1.15 (KHTML, like Gecko) Version/17.0 Safari/605.1.15" etag="bNzsLr421eC0pEWSnKfz" version="22.0.5" type="device">
  <diagram name="Страница — 1" id="CuMxeTjFhsHzfsJrRL9M">
    <mxGraphModel dx="2293" dy="2158" grid="1" gridSize="10" guides="1" tooltips="1" connect="1" arrows="1" fold="1" page="1" pageScale="1" pageWidth="827" pageHeight="1169" math="0" shadow="0">
      <root>
        <mxCell id="0" />
        <mxCell id="1" parent="0" />
        <mxCell id="NyA0sl9m11uBEdN3ejfi-3" style="rounded=0;orthogonalLoop=1;jettySize=auto;html=1;exitX=0;exitY=0;exitDx=0;exitDy=0;entryX=1;entryY=1;entryDx=0;entryDy=0;dashed=1;" edge="1" parent="1" source="NyA0sl9m11uBEdN3ejfi-1" target="NyA0sl9m11uBEdN3ejfi-2">
          <mxGeometry relative="1" as="geometry" />
        </mxCell>
        <mxCell id="NyA0sl9m11uBEdN3ejfi-95" style="edgeStyle=none;rounded=0;orthogonalLoop=1;jettySize=auto;html=1;exitX=1;exitY=0;exitDx=0;exitDy=0;entryX=0;entryY=0.5;entryDx=0;entryDy=0;dashed=1;" edge="1" parent="1" source="NyA0sl9m11uBEdN3ejfi-1" target="NyA0sl9m11uBEdN3ejfi-51">
          <mxGeometry relative="1" as="geometry" />
        </mxCell>
        <mxCell id="NyA0sl9m11uBEdN3ejfi-97" style="edgeStyle=none;rounded=0;orthogonalLoop=1;jettySize=auto;html=1;exitX=1;exitY=0.5;exitDx=0;exitDy=0;entryX=0;entryY=0.5;entryDx=0;entryDy=0;dashed=1;" edge="1" parent="1" source="NyA0sl9m11uBEdN3ejfi-1" target="NyA0sl9m11uBEdN3ejfi-96">
          <mxGeometry relative="1" as="geometry" />
        </mxCell>
        <mxCell id="NyA0sl9m11uBEdN3ejfi-196" style="edgeStyle=none;shape=connector;rounded=0;orthogonalLoop=1;jettySize=auto;html=1;entryX=0.5;entryY=1;entryDx=0;entryDy=0;dashed=1;labelBackgroundColor=default;strokeColor=default;align=center;verticalAlign=middle;fontFamily=Helvetica;fontSize=11;fontColor=default;endArrow=classic;" edge="1" parent="1" source="NyA0sl9m11uBEdN3ejfi-1" target="NyA0sl9m11uBEdN3ejfi-185">
          <mxGeometry relative="1" as="geometry" />
        </mxCell>
        <mxCell id="NyA0sl9m11uBEdN3ejfi-204" style="edgeStyle=none;shape=connector;rounded=0;orthogonalLoop=1;jettySize=auto;html=1;dashed=1;labelBackgroundColor=default;strokeColor=default;align=center;verticalAlign=middle;fontFamily=Helvetica;fontSize=11;fontColor=default;endArrow=classic;" edge="1" parent="1" source="NyA0sl9m11uBEdN3ejfi-1" target="NyA0sl9m11uBEdN3ejfi-197">
          <mxGeometry relative="1" as="geometry" />
        </mxCell>
        <mxCell id="NyA0sl9m11uBEdN3ejfi-206" style="edgeStyle=none;shape=connector;rounded=0;orthogonalLoop=1;jettySize=auto;html=1;entryX=0.5;entryY=1;entryDx=0;entryDy=0;dashed=1;labelBackgroundColor=default;strokeColor=default;align=center;verticalAlign=middle;fontFamily=Helvetica;fontSize=11;fontColor=default;endArrow=classic;" edge="1" parent="1" source="NyA0sl9m11uBEdN3ejfi-1" target="NyA0sl9m11uBEdN3ejfi-205">
          <mxGeometry relative="1" as="geometry" />
        </mxCell>
        <mxCell id="NyA0sl9m11uBEdN3ejfi-1" value="&lt;span style=&quot;caret-color: rgb(0, 0, 0); color: rgb(0, 0, 0); font-family: Helvetica; font-size: 12px; font-style: normal; font-variant-caps: normal; font-weight: 400; letter-spacing: normal; text-align: center; text-indent: 0px; text-transform: none; word-spacing: 0px; -webkit-text-stroke-width: 0px; background-color: rgb(251, 251, 251); text-decoration: none; float: none; display: inline !important;&quot;&gt;Посмотреть показатели ПК и статическую информацию&lt;/span&gt;" style="ellipse;whiteSpace=wrap;html=1;" vertex="1" parent="1">
          <mxGeometry x="720" y="420" width="120" height="80" as="geometry" />
        </mxCell>
        <mxCell id="NyA0sl9m11uBEdN3ejfi-6" style="rounded=0;orthogonalLoop=1;jettySize=auto;html=1;exitX=1;exitY=0;exitDx=0;exitDy=0;entryX=0;entryY=0.5;entryDx=0;entryDy=0;dashed=1;" edge="1" parent="1" source="NyA0sl9m11uBEdN3ejfi-2" target="NyA0sl9m11uBEdN3ejfi-5">
          <mxGeometry relative="1" as="geometry" />
        </mxCell>
        <mxCell id="NyA0sl9m11uBEdN3ejfi-12" style="rounded=0;orthogonalLoop=1;jettySize=auto;html=1;exitX=0.5;exitY=0;exitDx=0;exitDy=0;entryX=0.5;entryY=1;entryDx=0;entryDy=0;dashed=1;" edge="1" parent="1" source="NyA0sl9m11uBEdN3ejfi-2" target="NyA0sl9m11uBEdN3ejfi-11">
          <mxGeometry relative="1" as="geometry">
            <mxPoint x="210" y="150" as="targetPoint" />
          </mxGeometry>
        </mxCell>
        <mxCell id="NyA0sl9m11uBEdN3ejfi-19" style="rounded=0;orthogonalLoop=1;jettySize=auto;html=1;exitX=0;exitY=0;exitDx=0;exitDy=0;entryX=1;entryY=1;entryDx=0;entryDy=0;dashed=1;" edge="1" parent="1" source="NyA0sl9m11uBEdN3ejfi-2" target="NyA0sl9m11uBEdN3ejfi-18">
          <mxGeometry relative="1" as="geometry" />
        </mxCell>
        <mxCell id="NyA0sl9m11uBEdN3ejfi-25" style="edgeStyle=none;rounded=0;orthogonalLoop=1;jettySize=auto;html=1;exitX=0;exitY=0.5;exitDx=0;exitDy=0;entryX=1;entryY=0.5;entryDx=0;entryDy=0;dashed=1;" edge="1" parent="1" source="NyA0sl9m11uBEdN3ejfi-2" target="NyA0sl9m11uBEdN3ejfi-24">
          <mxGeometry relative="1" as="geometry" />
        </mxCell>
        <mxCell id="NyA0sl9m11uBEdN3ejfi-32" style="edgeStyle=none;rounded=0;orthogonalLoop=1;jettySize=auto;html=1;exitX=0;exitY=1;exitDx=0;exitDy=0;entryX=1;entryY=0;entryDx=0;entryDy=0;dashed=1;" edge="1" parent="1" source="NyA0sl9m11uBEdN3ejfi-2" target="NyA0sl9m11uBEdN3ejfi-31">
          <mxGeometry relative="1" as="geometry" />
        </mxCell>
        <mxCell id="NyA0sl9m11uBEdN3ejfi-2" value="CPU" style="ellipse;whiteSpace=wrap;html=1;" vertex="1" parent="1">
          <mxGeometry x="140" y="220" width="90" height="50" as="geometry" />
        </mxCell>
        <mxCell id="NyA0sl9m11uBEdN3ejfi-9" style="rounded=0;orthogonalLoop=1;jettySize=auto;html=1;exitX=1;exitY=1;exitDx=0;exitDy=0;entryX=0;entryY=0.5;entryDx=0;entryDy=0;dashed=1;" edge="1" parent="1" source="NyA0sl9m11uBEdN3ejfi-5" target="NyA0sl9m11uBEdN3ejfi-8">
          <mxGeometry relative="1" as="geometry" />
        </mxCell>
        <mxCell id="NyA0sl9m11uBEdN3ejfi-10" style="rounded=0;orthogonalLoop=1;jettySize=auto;html=1;exitX=1;exitY=0;exitDx=0;exitDy=0;entryX=0;entryY=0.5;entryDx=0;entryDy=0;dashed=1;" edge="1" parent="1" source="NyA0sl9m11uBEdN3ejfi-5" target="NyA0sl9m11uBEdN3ejfi-7">
          <mxGeometry relative="1" as="geometry" />
        </mxCell>
        <mxCell id="NyA0sl9m11uBEdN3ejfi-5" value="Напряжение" style="ellipse;whiteSpace=wrap;html=1;" vertex="1" parent="1">
          <mxGeometry x="300" y="180" width="90" height="50" as="geometry" />
        </mxCell>
        <mxCell id="NyA0sl9m11uBEdN3ejfi-7" value="Package" style="ellipse;whiteSpace=wrap;html=1;" vertex="1" parent="1">
          <mxGeometry x="440" y="130" width="90" height="50" as="geometry" />
        </mxCell>
        <mxCell id="NyA0sl9m11uBEdN3ejfi-8" value="Ядра" style="ellipse;whiteSpace=wrap;html=1;" vertex="1" parent="1">
          <mxGeometry x="440" y="220" width="90" height="50" as="geometry" />
        </mxCell>
        <mxCell id="NyA0sl9m11uBEdN3ejfi-16" style="rounded=0;orthogonalLoop=1;jettySize=auto;html=1;exitX=0.5;exitY=0;exitDx=0;exitDy=0;entryX=0.5;entryY=1;entryDx=0;entryDy=0;dashed=1;" edge="1" parent="1" source="NyA0sl9m11uBEdN3ejfi-11" target="NyA0sl9m11uBEdN3ejfi-13">
          <mxGeometry relative="1" as="geometry" />
        </mxCell>
        <mxCell id="NyA0sl9m11uBEdN3ejfi-11" value="Частота" style="ellipse;whiteSpace=wrap;html=1;" vertex="1" parent="1">
          <mxGeometry x="170" y="90" width="90" height="50" as="geometry" />
        </mxCell>
        <mxCell id="NyA0sl9m11uBEdN3ejfi-13" value="Ядра" style="ellipse;whiteSpace=wrap;html=1;" vertex="1" parent="1">
          <mxGeometry x="140" width="90" height="50" as="geometry" />
        </mxCell>
        <mxCell id="NyA0sl9m11uBEdN3ejfi-14" value="Напряжение" style="ellipse;whiteSpace=wrap;html=1;" vertex="1" parent="1">
          <mxGeometry x="270" width="90" height="50" as="geometry" />
        </mxCell>
        <mxCell id="NyA0sl9m11uBEdN3ejfi-17" style="rounded=0;orthogonalLoop=1;jettySize=auto;html=1;exitX=1;exitY=0;exitDx=0;exitDy=0;entryX=0.46;entryY=0.991;entryDx=0;entryDy=0;entryPerimeter=0;dashed=1;" edge="1" parent="1" source="NyA0sl9m11uBEdN3ejfi-11" target="NyA0sl9m11uBEdN3ejfi-14">
          <mxGeometry relative="1" as="geometry" />
        </mxCell>
        <mxCell id="NyA0sl9m11uBEdN3ejfi-21" style="rounded=0;orthogonalLoop=1;jettySize=auto;html=1;exitX=0.5;exitY=0;exitDx=0;exitDy=0;entryX=0.5;entryY=1;entryDx=0;entryDy=0;dashed=1;" edge="1" parent="1" source="NyA0sl9m11uBEdN3ejfi-18" target="NyA0sl9m11uBEdN3ejfi-20">
          <mxGeometry relative="1" as="geometry" />
        </mxCell>
        <mxCell id="NyA0sl9m11uBEdN3ejfi-23" style="edgeStyle=orthogonalEdgeStyle;rounded=0;orthogonalLoop=1;jettySize=auto;html=1;exitX=0;exitY=0.5;exitDx=0;exitDy=0;entryX=1;entryY=0.5;entryDx=0;entryDy=0;dashed=1;" edge="1" parent="1" source="NyA0sl9m11uBEdN3ejfi-18" target="NyA0sl9m11uBEdN3ejfi-22">
          <mxGeometry relative="1" as="geometry" />
        </mxCell>
        <mxCell id="NyA0sl9m11uBEdN3ejfi-18" value="Загрузка" style="ellipse;whiteSpace=wrap;html=1;" vertex="1" parent="1">
          <mxGeometry x="10" y="90" width="90" height="50" as="geometry" />
        </mxCell>
        <mxCell id="NyA0sl9m11uBEdN3ejfi-20" value="Ядра" style="ellipse;whiteSpace=wrap;html=1;" vertex="1" parent="1">
          <mxGeometry x="-10" width="90" height="50" as="geometry" />
        </mxCell>
        <mxCell id="NyA0sl9m11uBEdN3ejfi-22" value="Напряжение" style="ellipse;whiteSpace=wrap;html=1;" vertex="1" parent="1">
          <mxGeometry x="-140" y="90" width="90" height="50" as="geometry" />
        </mxCell>
        <mxCell id="NyA0sl9m11uBEdN3ejfi-28" style="edgeStyle=none;rounded=0;orthogonalLoop=1;jettySize=auto;html=1;exitX=0;exitY=0;exitDx=0;exitDy=0;entryX=1;entryY=0.5;entryDx=0;entryDy=0;dashed=1;" edge="1" parent="1" source="NyA0sl9m11uBEdN3ejfi-24" target="NyA0sl9m11uBEdN3ejfi-26">
          <mxGeometry relative="1" as="geometry" />
        </mxCell>
        <mxCell id="NyA0sl9m11uBEdN3ejfi-29" style="edgeStyle=none;rounded=0;orthogonalLoop=1;jettySize=auto;html=1;exitX=0;exitY=1;exitDx=0;exitDy=0;entryX=1;entryY=0.5;entryDx=0;entryDy=0;dashed=1;" edge="1" parent="1" source="NyA0sl9m11uBEdN3ejfi-24" target="NyA0sl9m11uBEdN3ejfi-27">
          <mxGeometry relative="1" as="geometry" />
        </mxCell>
        <mxCell id="NyA0sl9m11uBEdN3ejfi-24" value="Температура" style="ellipse;whiteSpace=wrap;html=1;" vertex="1" parent="1">
          <mxGeometry x="-10" y="220" width="90" height="50" as="geometry" />
        </mxCell>
        <mxCell id="NyA0sl9m11uBEdN3ejfi-26" value="Package" style="ellipse;whiteSpace=wrap;html=1;" vertex="1" parent="1">
          <mxGeometry x="-140" y="175" width="90" height="50" as="geometry" />
        </mxCell>
        <mxCell id="NyA0sl9m11uBEdN3ejfi-27" value="Ядра" style="ellipse;whiteSpace=wrap;html=1;" vertex="1" parent="1">
          <mxGeometry x="-140" y="265" width="90" height="50" as="geometry" />
        </mxCell>
        <mxCell id="NyA0sl9m11uBEdN3ejfi-42" style="edgeStyle=none;rounded=0;orthogonalLoop=1;jettySize=auto;html=1;exitX=0;exitY=0.5;exitDx=0;exitDy=0;entryX=1;entryY=0.5;entryDx=0;entryDy=0;dashed=1;" edge="1" parent="1" source="NyA0sl9m11uBEdN3ejfi-31" target="NyA0sl9m11uBEdN3ejfi-33">
          <mxGeometry relative="1" as="geometry" />
        </mxCell>
        <mxCell id="NyA0sl9m11uBEdN3ejfi-43" style="edgeStyle=none;rounded=0;orthogonalLoop=1;jettySize=auto;html=1;exitX=0;exitY=1;exitDx=0;exitDy=0;entryX=1;entryY=0.5;entryDx=0;entryDy=0;dashed=1;" edge="1" parent="1" source="NyA0sl9m11uBEdN3ejfi-31" target="NyA0sl9m11uBEdN3ejfi-34">
          <mxGeometry relative="1" as="geometry" />
        </mxCell>
        <mxCell id="NyA0sl9m11uBEdN3ejfi-44" style="edgeStyle=none;rounded=0;orthogonalLoop=1;jettySize=auto;html=1;exitX=0.5;exitY=1;exitDx=0;exitDy=0;entryX=1;entryY=0;entryDx=0;entryDy=0;dashed=1;" edge="1" parent="1" source="NyA0sl9m11uBEdN3ejfi-31" target="NyA0sl9m11uBEdN3ejfi-35">
          <mxGeometry relative="1" as="geometry" />
        </mxCell>
        <mxCell id="NyA0sl9m11uBEdN3ejfi-45" style="edgeStyle=none;rounded=0;orthogonalLoop=1;jettySize=auto;html=1;exitX=0.5;exitY=1;exitDx=0;exitDy=0;dashed=1;" edge="1" parent="1" source="NyA0sl9m11uBEdN3ejfi-31" target="NyA0sl9m11uBEdN3ejfi-36">
          <mxGeometry relative="1" as="geometry" />
        </mxCell>
        <mxCell id="NyA0sl9m11uBEdN3ejfi-46" style="edgeStyle=none;rounded=0;orthogonalLoop=1;jettySize=auto;html=1;exitX=0.5;exitY=1;exitDx=0;exitDy=0;entryX=0.5;entryY=0;entryDx=0;entryDy=0;dashed=1;" edge="1" parent="1" source="NyA0sl9m11uBEdN3ejfi-31" target="NyA0sl9m11uBEdN3ejfi-37">
          <mxGeometry relative="1" as="geometry" />
        </mxCell>
        <mxCell id="NyA0sl9m11uBEdN3ejfi-47" style="edgeStyle=none;rounded=0;orthogonalLoop=1;jettySize=auto;html=1;exitX=1;exitY=1;exitDx=0;exitDy=0;entryX=0;entryY=0;entryDx=0;entryDy=0;dashed=1;" edge="1" parent="1" source="NyA0sl9m11uBEdN3ejfi-31" target="NyA0sl9m11uBEdN3ejfi-38">
          <mxGeometry relative="1" as="geometry" />
        </mxCell>
        <mxCell id="NyA0sl9m11uBEdN3ejfi-31" value="Статическая информация" style="ellipse;whiteSpace=wrap;html=1;" vertex="1" parent="1">
          <mxGeometry x="10" y="350" width="90" height="50" as="geometry" />
        </mxCell>
        <mxCell id="NyA0sl9m11uBEdN3ejfi-33" value="&lt;font style=&quot;font-size: 11px;&quot;&gt;Ссылка на сайт производителя&lt;/font&gt;" style="ellipse;whiteSpace=wrap;html=1;" vertex="1" parent="1">
          <mxGeometry x="-200" y="350" width="90" height="50" as="geometry" />
        </mxCell>
        <mxCell id="NyA0sl9m11uBEdN3ejfi-34" value="Название" style="ellipse;whiteSpace=wrap;html=1;" vertex="1" parent="1">
          <mxGeometry x="-160" y="410" width="90" height="50" as="geometry" />
        </mxCell>
        <mxCell id="NyA0sl9m11uBEdN3ejfi-35" value="Сокет" style="ellipse;whiteSpace=wrap;html=1;" vertex="1" parent="1">
          <mxGeometry x="-120" y="470" width="90" height="50" as="geometry" />
        </mxCell>
        <mxCell id="NyA0sl9m11uBEdN3ejfi-36" value="Базовая частота" style="ellipse;whiteSpace=wrap;html=1;" vertex="1" parent="1">
          <mxGeometry x="-80" y="530" width="90" height="50" as="geometry" />
        </mxCell>
        <mxCell id="NyA0sl9m11uBEdN3ejfi-48" style="edgeStyle=none;rounded=0;orthogonalLoop=1;jettySize=auto;html=1;exitX=0.5;exitY=1;exitDx=0;exitDy=0;entryX=0.5;entryY=0;entryDx=0;entryDy=0;dashed=1;" edge="1" parent="1" source="NyA0sl9m11uBEdN3ejfi-37" target="NyA0sl9m11uBEdN3ejfi-39">
          <mxGeometry relative="1" as="geometry" />
        </mxCell>
        <mxCell id="NyA0sl9m11uBEdN3ejfi-49" style="edgeStyle=none;rounded=0;orthogonalLoop=1;jettySize=auto;html=1;exitX=0.5;exitY=1;exitDx=0;exitDy=0;entryX=0.5;entryY=0;entryDx=0;entryDy=0;dashed=1;" edge="1" parent="1" source="NyA0sl9m11uBEdN3ejfi-37" target="NyA0sl9m11uBEdN3ejfi-40">
          <mxGeometry relative="1" as="geometry" />
        </mxCell>
        <mxCell id="NyA0sl9m11uBEdN3ejfi-50" style="edgeStyle=none;rounded=0;orthogonalLoop=1;jettySize=auto;html=1;exitX=0.5;exitY=1;exitDx=0;exitDy=0;entryX=0.5;entryY=0;entryDx=0;entryDy=0;dashed=1;" edge="1" parent="1" source="NyA0sl9m11uBEdN3ejfi-37" target="NyA0sl9m11uBEdN3ejfi-41">
          <mxGeometry relative="1" as="geometry" />
        </mxCell>
        <mxCell id="NyA0sl9m11uBEdN3ejfi-37" value="Объем кэша" style="ellipse;whiteSpace=wrap;html=1;" vertex="1" parent="1">
          <mxGeometry x="30" y="470" width="90" height="50" as="geometry" />
        </mxCell>
        <mxCell id="NyA0sl9m11uBEdN3ejfi-38" value="Производитель" style="ellipse;whiteSpace=wrap;html=1;" vertex="1" parent="1">
          <mxGeometry x="140" y="410" width="90" height="50" as="geometry" />
        </mxCell>
        <mxCell id="NyA0sl9m11uBEdN3ejfi-39" value="L1" style="ellipse;whiteSpace=wrap;html=1;" vertex="1" parent="1">
          <mxGeometry x="10" y="620" width="50" height="30" as="geometry" />
        </mxCell>
        <mxCell id="NyA0sl9m11uBEdN3ejfi-40" value="L2" style="ellipse;whiteSpace=wrap;html=1;" vertex="1" parent="1">
          <mxGeometry x="70" y="620" width="50" height="30" as="geometry" />
        </mxCell>
        <mxCell id="NyA0sl9m11uBEdN3ejfi-41" value="L3" style="ellipse;whiteSpace=wrap;html=1;" vertex="1" parent="1">
          <mxGeometry x="130" y="620" width="50" height="30" as="geometry" />
        </mxCell>
        <mxCell id="NyA0sl9m11uBEdN3ejfi-57" style="edgeStyle=none;rounded=0;orthogonalLoop=1;jettySize=auto;html=1;exitX=0;exitY=0;exitDx=0;exitDy=0;dashed=1;" edge="1" parent="1" source="NyA0sl9m11uBEdN3ejfi-51" target="NyA0sl9m11uBEdN3ejfi-52">
          <mxGeometry relative="1" as="geometry" />
        </mxCell>
        <mxCell id="NyA0sl9m11uBEdN3ejfi-74" style="edgeStyle=none;rounded=0;orthogonalLoop=1;jettySize=auto;html=1;exitX=0.5;exitY=1;exitDx=0;exitDy=0;entryX=0;entryY=0;entryDx=0;entryDy=0;dashed=1;" edge="1" parent="1" source="NyA0sl9m11uBEdN3ejfi-51" target="NyA0sl9m11uBEdN3ejfi-73">
          <mxGeometry relative="1" as="geometry" />
        </mxCell>
        <mxCell id="NyA0sl9m11uBEdN3ejfi-94" style="edgeStyle=none;rounded=0;orthogonalLoop=1;jettySize=auto;html=1;exitX=0.282;exitY=0.955;exitDx=0;exitDy=0;entryX=0.5;entryY=0;entryDx=0;entryDy=0;dashed=1;exitPerimeter=0;" edge="1" parent="1" source="NyA0sl9m11uBEdN3ejfi-51" target="NyA0sl9m11uBEdN3ejfi-81">
          <mxGeometry relative="1" as="geometry" />
        </mxCell>
        <mxCell id="NyA0sl9m11uBEdN3ejfi-51" value="GPU" style="ellipse;whiteSpace=wrap;html=1;" vertex="1" parent="1">
          <mxGeometry x="1170" y="70" width="90" height="50" as="geometry" />
        </mxCell>
        <mxCell id="NyA0sl9m11uBEdN3ejfi-56" style="edgeStyle=none;rounded=0;orthogonalLoop=1;jettySize=auto;html=1;exitX=0;exitY=0;exitDx=0;exitDy=0;entryX=1;entryY=1;entryDx=0;entryDy=0;dashed=1;" edge="1" parent="1" source="NyA0sl9m11uBEdN3ejfi-52" target="NyA0sl9m11uBEdN3ejfi-53">
          <mxGeometry relative="1" as="geometry" />
        </mxCell>
        <mxCell id="NyA0sl9m11uBEdN3ejfi-52" value="Температуры" style="ellipse;whiteSpace=wrap;html=1;" vertex="1" parent="1">
          <mxGeometry x="1100" y="-20" width="90" height="50" as="geometry" />
        </mxCell>
        <mxCell id="NyA0sl9m11uBEdN3ejfi-53" value="Ядро" style="ellipse;whiteSpace=wrap;html=1;" vertex="1" parent="1">
          <mxGeometry x="1010" y="-100" width="90" height="50" as="geometry" />
        </mxCell>
        <mxCell id="NyA0sl9m11uBEdN3ejfi-55" style="edgeStyle=none;rounded=0;orthogonalLoop=1;jettySize=auto;html=1;exitX=0.5;exitY=1;exitDx=0;exitDy=0;dashed=1;" edge="1" parent="1" source="NyA0sl9m11uBEdN3ejfi-54" target="NyA0sl9m11uBEdN3ejfi-52">
          <mxGeometry relative="1" as="geometry" />
        </mxCell>
        <mxCell id="NyA0sl9m11uBEdN3ejfi-54" value="Память" style="ellipse;whiteSpace=wrap;html=1;" vertex="1" parent="1">
          <mxGeometry x="1180" y="-100" width="90" height="50" as="geometry" />
        </mxCell>
        <mxCell id="NyA0sl9m11uBEdN3ejfi-62" style="edgeStyle=none;rounded=0;orthogonalLoop=1;jettySize=auto;html=1;exitX=0.5;exitY=0;exitDx=0;exitDy=0;entryX=0.5;entryY=1;entryDx=0;entryDy=0;dashed=1;" edge="1" parent="1" source="NyA0sl9m11uBEdN3ejfi-58" target="NyA0sl9m11uBEdN3ejfi-59">
          <mxGeometry relative="1" as="geometry" />
        </mxCell>
        <mxCell id="NyA0sl9m11uBEdN3ejfi-63" style="edgeStyle=none;rounded=0;orthogonalLoop=1;jettySize=auto;html=1;exitX=1;exitY=0.5;exitDx=0;exitDy=0;entryX=0;entryY=1;entryDx=0;entryDy=0;dashed=1;" edge="1" parent="1" source="NyA0sl9m11uBEdN3ejfi-58" target="NyA0sl9m11uBEdN3ejfi-60">
          <mxGeometry relative="1" as="geometry" />
        </mxCell>
        <mxCell id="NyA0sl9m11uBEdN3ejfi-58" value="Загрузка" style="ellipse;whiteSpace=wrap;html=1;" vertex="1" parent="1">
          <mxGeometry x="1280" y="-20" width="90" height="50" as="geometry" />
        </mxCell>
        <mxCell id="NyA0sl9m11uBEdN3ejfi-59" value="Ядро" style="ellipse;whiteSpace=wrap;html=1;" vertex="1" parent="1">
          <mxGeometry x="1310" y="-100" width="90" height="50" as="geometry" />
        </mxCell>
        <mxCell id="NyA0sl9m11uBEdN3ejfi-60" value="Фреймбуфер" style="ellipse;whiteSpace=wrap;html=1;" vertex="1" parent="1">
          <mxGeometry x="1440" y="-100" width="90" height="50" as="geometry" />
        </mxCell>
        <mxCell id="NyA0sl9m11uBEdN3ejfi-61" style="edgeStyle=none;rounded=0;orthogonalLoop=1;jettySize=auto;html=1;exitX=1;exitY=0;exitDx=0;exitDy=0;entryX=0;entryY=0.5;entryDx=0;entryDy=0;dashed=1;" edge="1" parent="1" source="NyA0sl9m11uBEdN3ejfi-51" target="NyA0sl9m11uBEdN3ejfi-58">
          <mxGeometry relative="1" as="geometry" />
        </mxCell>
        <mxCell id="NyA0sl9m11uBEdN3ejfi-68" style="edgeStyle=none;rounded=0;orthogonalLoop=1;jettySize=auto;html=1;exitX=1;exitY=0;exitDx=0;exitDy=0;entryX=0;entryY=0.5;entryDx=0;entryDy=0;dashed=1;" edge="1" parent="1" source="NyA0sl9m11uBEdN3ejfi-64" target="NyA0sl9m11uBEdN3ejfi-65">
          <mxGeometry relative="1" as="geometry" />
        </mxCell>
        <mxCell id="NyA0sl9m11uBEdN3ejfi-69" style="edgeStyle=none;rounded=0;orthogonalLoop=1;jettySize=auto;html=1;exitX=1;exitY=0.5;exitDx=0;exitDy=0;entryX=0;entryY=0.5;entryDx=0;entryDy=0;dashed=1;" edge="1" parent="1" source="NyA0sl9m11uBEdN3ejfi-64" target="NyA0sl9m11uBEdN3ejfi-66">
          <mxGeometry relative="1" as="geometry" />
        </mxCell>
        <mxCell id="NyA0sl9m11uBEdN3ejfi-64" value="Частота" style="ellipse;whiteSpace=wrap;html=1;" vertex="1" parent="1">
          <mxGeometry x="1330" y="55" width="90" height="50" as="geometry" />
        </mxCell>
        <mxCell id="NyA0sl9m11uBEdN3ejfi-65" value="Ядро" style="ellipse;whiteSpace=wrap;html=1;" vertex="1" parent="1">
          <mxGeometry x="1480" y="-20" width="90" height="50" as="geometry" />
        </mxCell>
        <mxCell id="NyA0sl9m11uBEdN3ejfi-66" value="Память" style="ellipse;whiteSpace=wrap;html=1;" vertex="1" parent="1">
          <mxGeometry x="1480" y="50" width="90" height="50" as="geometry" />
        </mxCell>
        <mxCell id="NyA0sl9m11uBEdN3ejfi-67" style="edgeStyle=none;rounded=0;orthogonalLoop=1;jettySize=auto;html=1;exitX=1;exitY=0.5;exitDx=0;exitDy=0;entryX=0.011;entryY=0.397;entryDx=0;entryDy=0;entryPerimeter=0;dashed=1;" edge="1" parent="1" source="NyA0sl9m11uBEdN3ejfi-51" target="NyA0sl9m11uBEdN3ejfi-64">
          <mxGeometry relative="1" as="geometry" />
        </mxCell>
        <mxCell id="NyA0sl9m11uBEdN3ejfi-70" value="Напряжение ядра" style="ellipse;whiteSpace=wrap;html=1;" vertex="1" parent="1">
          <mxGeometry x="1330" y="140" width="90" height="50" as="geometry" />
        </mxCell>
        <mxCell id="NyA0sl9m11uBEdN3ejfi-72" style="edgeStyle=none;rounded=0;orthogonalLoop=1;jettySize=auto;html=1;exitX=1;exitY=1;exitDx=0;exitDy=0;entryX=-0.004;entryY=0.377;entryDx=0;entryDy=0;entryPerimeter=0;dashed=1;" edge="1" parent="1" source="NyA0sl9m11uBEdN3ejfi-51" target="NyA0sl9m11uBEdN3ejfi-70">
          <mxGeometry relative="1" as="geometry" />
        </mxCell>
        <mxCell id="NyA0sl9m11uBEdN3ejfi-78" style="edgeStyle=none;rounded=0;orthogonalLoop=1;jettySize=auto;html=1;exitX=1;exitY=0.5;exitDx=0;exitDy=0;entryX=0;entryY=0.5;entryDx=0;entryDy=0;dashed=1;" edge="1" parent="1" source="NyA0sl9m11uBEdN3ejfi-73" target="NyA0sl9m11uBEdN3ejfi-75">
          <mxGeometry relative="1" as="geometry" />
        </mxCell>
        <mxCell id="NyA0sl9m11uBEdN3ejfi-73" value="Память" style="ellipse;whiteSpace=wrap;html=1;" vertex="1" parent="1">
          <mxGeometry x="1310" y="220" width="90" height="50" as="geometry" />
        </mxCell>
        <mxCell id="NyA0sl9m11uBEdN3ejfi-75" value="Общий объем памяти" style="ellipse;whiteSpace=wrap;html=1;" vertex="1" parent="1">
          <mxGeometry x="1480" y="190" width="90" height="50" as="geometry" />
        </mxCell>
        <mxCell id="NyA0sl9m11uBEdN3ejfi-76" value="Объем используемой памяти" style="ellipse;whiteSpace=wrap;html=1;" vertex="1" parent="1">
          <mxGeometry x="1480" y="270" width="90" height="50" as="geometry" />
        </mxCell>
        <mxCell id="NyA0sl9m11uBEdN3ejfi-77" value="Объем свободной памяти" style="ellipse;whiteSpace=wrap;html=1;" vertex="1" parent="1">
          <mxGeometry x="1480" y="340" width="90" height="50" as="geometry" />
        </mxCell>
        <mxCell id="NyA0sl9m11uBEdN3ejfi-79" style="edgeStyle=none;rounded=0;orthogonalLoop=1;jettySize=auto;html=1;exitX=1;exitY=1;exitDx=0;exitDy=0;entryX=-0.004;entryY=0.377;entryDx=0;entryDy=0;entryPerimeter=0;dashed=1;" edge="1" parent="1" source="NyA0sl9m11uBEdN3ejfi-73" target="NyA0sl9m11uBEdN3ejfi-76">
          <mxGeometry relative="1" as="geometry" />
        </mxCell>
        <mxCell id="NyA0sl9m11uBEdN3ejfi-80" style="edgeStyle=none;rounded=0;orthogonalLoop=1;jettySize=auto;html=1;exitX=0.5;exitY=1;exitDx=0;exitDy=0;entryX=-0.003;entryY=0.39;entryDx=0;entryDy=0;entryPerimeter=0;dashed=1;" edge="1" parent="1" source="NyA0sl9m11uBEdN3ejfi-73" target="NyA0sl9m11uBEdN3ejfi-77">
          <mxGeometry relative="1" as="geometry" />
        </mxCell>
        <mxCell id="NyA0sl9m11uBEdN3ejfi-88" style="edgeStyle=none;rounded=0;orthogonalLoop=1;jettySize=auto;html=1;exitX=0;exitY=1;exitDx=0;exitDy=0;dashed=1;" edge="1" parent="1" source="NyA0sl9m11uBEdN3ejfi-81" target="NyA0sl9m11uBEdN3ejfi-82">
          <mxGeometry relative="1" as="geometry" />
        </mxCell>
        <mxCell id="NyA0sl9m11uBEdN3ejfi-90" style="edgeStyle=none;rounded=0;orthogonalLoop=1;jettySize=auto;html=1;exitX=0.5;exitY=1;exitDx=0;exitDy=0;entryX=0.5;entryY=0;entryDx=0;entryDy=0;dashed=1;" edge="1" parent="1" source="NyA0sl9m11uBEdN3ejfi-81" target="NyA0sl9m11uBEdN3ejfi-84">
          <mxGeometry relative="1" as="geometry" />
        </mxCell>
        <mxCell id="NyA0sl9m11uBEdN3ejfi-91" style="edgeStyle=none;rounded=0;orthogonalLoop=1;jettySize=auto;html=1;exitX=0.5;exitY=1;exitDx=0;exitDy=0;entryX=1;entryY=0;entryDx=0;entryDy=0;dashed=1;" edge="1" parent="1" source="NyA0sl9m11uBEdN3ejfi-81" target="NyA0sl9m11uBEdN3ejfi-85">
          <mxGeometry relative="1" as="geometry" />
        </mxCell>
        <mxCell id="NyA0sl9m11uBEdN3ejfi-92" style="edgeStyle=none;rounded=0;orthogonalLoop=1;jettySize=auto;html=1;exitX=0.5;exitY=1;exitDx=0;exitDy=0;entryX=0;entryY=0;entryDx=0;entryDy=0;dashed=1;" edge="1" parent="1" source="NyA0sl9m11uBEdN3ejfi-81" target="NyA0sl9m11uBEdN3ejfi-86">
          <mxGeometry relative="1" as="geometry" />
        </mxCell>
        <mxCell id="NyA0sl9m11uBEdN3ejfi-93" style="edgeStyle=none;rounded=0;orthogonalLoop=1;jettySize=auto;html=1;exitX=1;exitY=1;exitDx=0;exitDy=0;entryX=0;entryY=0;entryDx=0;entryDy=0;dashed=1;" edge="1" parent="1" source="NyA0sl9m11uBEdN3ejfi-81" target="NyA0sl9m11uBEdN3ejfi-87">
          <mxGeometry relative="1" as="geometry" />
        </mxCell>
        <mxCell id="NyA0sl9m11uBEdN3ejfi-81" value="Статическая информация" style="ellipse;whiteSpace=wrap;html=1;" vertex="1" parent="1">
          <mxGeometry x="1151" y="220" width="90" height="50" as="geometry" />
        </mxCell>
        <mxCell id="NyA0sl9m11uBEdN3ejfi-82" value="Текущая версия драйвера" style="ellipse;whiteSpace=wrap;html=1;fontSize=11;" vertex="1" parent="1">
          <mxGeometry x="1040" y="280" width="90" height="50" as="geometry" />
        </mxCell>
        <mxCell id="NyA0sl9m11uBEdN3ejfi-83" value="Наименование" style="ellipse;whiteSpace=wrap;html=1;" vertex="1" parent="1">
          <mxGeometry x="1080" y="340" width="90" height="50" as="geometry" />
        </mxCell>
        <mxCell id="NyA0sl9m11uBEdN3ejfi-84" value="Ссылка на сайт с драйвером" style="ellipse;whiteSpace=wrap;html=1;fontSize=11;" vertex="1" parent="1">
          <mxGeometry x="1120" y="400" width="90" height="50" as="geometry" />
        </mxCell>
        <mxCell id="NyA0sl9m11uBEdN3ejfi-85" value="Базовая частота работы ядра" style="ellipse;whiteSpace=wrap;html=1;fontSize=11;" vertex="1" parent="1">
          <mxGeometry x="1160" y="460" width="90" height="50" as="geometry" />
        </mxCell>
        <mxCell id="NyA0sl9m11uBEdN3ejfi-86" value="Производитель" style="ellipse;whiteSpace=wrap;html=1;" vertex="1" parent="1">
          <mxGeometry x="1241" y="400" width="90" height="50" as="geometry" />
        </mxCell>
        <mxCell id="NyA0sl9m11uBEdN3ejfi-87" value="Ссылка на сайт производителя" style="ellipse;whiteSpace=wrap;html=1;fontSize=11;" vertex="1" parent="1">
          <mxGeometry x="1280" y="340" width="90" height="50" as="geometry" />
        </mxCell>
        <mxCell id="NyA0sl9m11uBEdN3ejfi-89" style="edgeStyle=none;rounded=0;orthogonalLoop=1;jettySize=auto;html=1;exitX=0.5;exitY=1;exitDx=0;exitDy=0;entryX=0.5;entryY=0;entryDx=0;entryDy=0;dashed=1;" edge="1" parent="1" source="NyA0sl9m11uBEdN3ejfi-81" target="NyA0sl9m11uBEdN3ejfi-83">
          <mxGeometry relative="1" as="geometry" />
        </mxCell>
        <mxCell id="NyA0sl9m11uBEdN3ejfi-101" style="edgeStyle=none;rounded=0;orthogonalLoop=1;jettySize=auto;html=1;exitX=1;exitY=0.5;exitDx=0;exitDy=0;dashed=1;" edge="1" parent="1" source="NyA0sl9m11uBEdN3ejfi-96" target="NyA0sl9m11uBEdN3ejfi-98">
          <mxGeometry relative="1" as="geometry" />
        </mxCell>
        <mxCell id="NyA0sl9m11uBEdN3ejfi-119" style="edgeStyle=none;shape=connector;rounded=0;orthogonalLoop=1;jettySize=auto;html=1;exitX=0.5;exitY=1;exitDx=0;exitDy=0;entryX=0.5;entryY=0;entryDx=0;entryDy=0;dashed=1;labelBackgroundColor=default;strokeColor=default;align=center;verticalAlign=middle;fontFamily=Helvetica;fontSize=11;fontColor=default;endArrow=classic;" edge="1" parent="1" source="NyA0sl9m11uBEdN3ejfi-96" target="NyA0sl9m11uBEdN3ejfi-118">
          <mxGeometry relative="1" as="geometry" />
        </mxCell>
        <mxCell id="NyA0sl9m11uBEdN3ejfi-96" value="RAM" style="ellipse;whiteSpace=wrap;html=1;" vertex="1" parent="1">
          <mxGeometry x="1151" y="570" width="90" height="50" as="geometry" />
        </mxCell>
        <mxCell id="NyA0sl9m11uBEdN3ejfi-112" style="edgeStyle=none;shape=connector;rounded=0;orthogonalLoop=1;jettySize=auto;html=1;exitX=0.5;exitY=0;exitDx=0;exitDy=0;entryX=0.5;entryY=1;entryDx=0;entryDy=0;dashed=1;labelBackgroundColor=default;strokeColor=default;align=center;verticalAlign=middle;fontFamily=Helvetica;fontSize=11;fontColor=default;endArrow=classic;" edge="1" parent="1" source="NyA0sl9m11uBEdN3ejfi-98" target="NyA0sl9m11uBEdN3ejfi-99">
          <mxGeometry relative="1" as="geometry" />
        </mxCell>
        <mxCell id="NyA0sl9m11uBEdN3ejfi-113" style="edgeStyle=none;shape=connector;rounded=0;orthogonalLoop=1;jettySize=auto;html=1;exitX=1;exitY=0;exitDx=0;exitDy=0;entryX=0;entryY=0.5;entryDx=0;entryDy=0;dashed=1;labelBackgroundColor=default;strokeColor=default;align=center;verticalAlign=middle;fontFamily=Helvetica;fontSize=11;fontColor=default;endArrow=classic;" edge="1" parent="1" source="NyA0sl9m11uBEdN3ejfi-98" target="NyA0sl9m11uBEdN3ejfi-100">
          <mxGeometry relative="1" as="geometry" />
        </mxCell>
        <mxCell id="NyA0sl9m11uBEdN3ejfi-114" style="edgeStyle=none;shape=connector;rounded=0;orthogonalLoop=1;jettySize=auto;html=1;exitX=1;exitY=0.5;exitDx=0;exitDy=0;entryX=0;entryY=0.5;entryDx=0;entryDy=0;dashed=1;labelBackgroundColor=default;strokeColor=default;align=center;verticalAlign=middle;fontFamily=Helvetica;fontSize=11;fontColor=default;endArrow=classic;" edge="1" parent="1" source="NyA0sl9m11uBEdN3ejfi-98" target="NyA0sl9m11uBEdN3ejfi-104">
          <mxGeometry relative="1" as="geometry" />
        </mxCell>
        <mxCell id="NyA0sl9m11uBEdN3ejfi-116" style="edgeStyle=none;shape=connector;rounded=0;orthogonalLoop=1;jettySize=auto;html=1;exitX=1;exitY=1;exitDx=0;exitDy=0;entryX=0;entryY=0;entryDx=0;entryDy=0;dashed=1;labelBackgroundColor=default;strokeColor=default;align=center;verticalAlign=middle;fontFamily=Helvetica;fontSize=11;fontColor=default;endArrow=classic;" edge="1" parent="1" source="NyA0sl9m11uBEdN3ejfi-98" target="NyA0sl9m11uBEdN3ejfi-106">
          <mxGeometry relative="1" as="geometry" />
        </mxCell>
        <mxCell id="NyA0sl9m11uBEdN3ejfi-117" style="edgeStyle=none;shape=connector;rounded=0;orthogonalLoop=1;jettySize=auto;html=1;exitX=0.5;exitY=1;exitDx=0;exitDy=0;entryX=0.5;entryY=0;entryDx=0;entryDy=0;dashed=1;labelBackgroundColor=default;strokeColor=default;align=center;verticalAlign=middle;fontFamily=Helvetica;fontSize=11;fontColor=default;endArrow=classic;" edge="1" parent="1" source="NyA0sl9m11uBEdN3ejfi-98" target="NyA0sl9m11uBEdN3ejfi-107">
          <mxGeometry relative="1" as="geometry" />
        </mxCell>
        <mxCell id="NyA0sl9m11uBEdN3ejfi-98" value="Статическая информация" style="ellipse;whiteSpace=wrap;html=1;" vertex="1" parent="1">
          <mxGeometry x="1370" y="570" width="90" height="50" as="geometry" />
        </mxCell>
        <mxCell id="NyA0sl9m11uBEdN3ejfi-99" value="Производитель" style="ellipse;whiteSpace=wrap;html=1;" vertex="1" parent="1">
          <mxGeometry x="1331" y="470" width="90" height="50" as="geometry" />
        </mxCell>
        <mxCell id="NyA0sl9m11uBEdN3ejfi-100" value="Частота работы памяти" style="ellipse;whiteSpace=wrap;html=1;fontSize=11;" vertex="1" parent="1">
          <mxGeometry x="1490" y="480" width="90" height="50" as="geometry" />
        </mxCell>
        <mxCell id="NyA0sl9m11uBEdN3ejfi-104" value="Адрес файла подкачки" style="ellipse;whiteSpace=wrap;html=1;" vertex="1" parent="1">
          <mxGeometry x="1520" y="570" width="90" height="50" as="geometry" />
        </mxCell>
        <mxCell id="NyA0sl9m11uBEdN3ejfi-106" value="Начальный размер файла подкачки" style="ellipse;whiteSpace=wrap;html=1;" vertex="1" parent="1">
          <mxGeometry x="1510" y="650" width="90" height="50" as="geometry" />
        </mxCell>
        <mxCell id="NyA0sl9m11uBEdN3ejfi-107" value="Текущий размер файла подкачки" style="ellipse;whiteSpace=wrap;html=1;" vertex="1" parent="1">
          <mxGeometry x="1360" y="660" width="90" height="50" as="geometry" />
        </mxCell>
        <mxCell id="NyA0sl9m11uBEdN3ejfi-123" style="edgeStyle=none;shape=connector;rounded=0;orthogonalLoop=1;jettySize=auto;html=1;exitX=0.5;exitY=1;exitDx=0;exitDy=0;entryX=0.5;entryY=0;entryDx=0;entryDy=0;dashed=1;labelBackgroundColor=default;strokeColor=default;align=center;verticalAlign=middle;fontFamily=Helvetica;fontSize=11;fontColor=default;endArrow=classic;" edge="1" parent="1" source="NyA0sl9m11uBEdN3ejfi-118" target="NyA0sl9m11uBEdN3ejfi-122">
          <mxGeometry relative="1" as="geometry" />
        </mxCell>
        <mxCell id="NyA0sl9m11uBEdN3ejfi-125" style="edgeStyle=none;shape=connector;rounded=0;orthogonalLoop=1;jettySize=auto;html=1;exitX=1;exitY=1;exitDx=0;exitDy=0;entryX=0;entryY=0;entryDx=0;entryDy=0;dashed=1;labelBackgroundColor=default;strokeColor=default;align=center;verticalAlign=middle;fontFamily=Helvetica;fontSize=11;fontColor=default;endArrow=classic;" edge="1" parent="1" source="NyA0sl9m11uBEdN3ejfi-118" target="NyA0sl9m11uBEdN3ejfi-124">
          <mxGeometry relative="1" as="geometry" />
        </mxCell>
        <mxCell id="NyA0sl9m11uBEdN3ejfi-118" value="Числовая информация" style="ellipse;whiteSpace=wrap;html=1;" vertex="1" parent="1">
          <mxGeometry x="1151" y="680" width="90" height="50" as="geometry" />
        </mxCell>
        <mxCell id="NyA0sl9m11uBEdN3ejfi-120" value="Загрузка памяти" style="ellipse;whiteSpace=wrap;html=1;" vertex="1" parent="1">
          <mxGeometry x="1080" y="780" width="90" height="50" as="geometry" />
        </mxCell>
        <mxCell id="NyA0sl9m11uBEdN3ejfi-121" style="edgeStyle=none;shape=connector;rounded=0;orthogonalLoop=1;jettySize=auto;html=1;exitX=0;exitY=1;exitDx=0;exitDy=0;dashed=1;labelBackgroundColor=default;strokeColor=default;align=center;verticalAlign=middle;fontFamily=Helvetica;fontSize=11;fontColor=default;endArrow=classic;entryX=0.5;entryY=0;entryDx=0;entryDy=0;" edge="1" parent="1" source="NyA0sl9m11uBEdN3ejfi-118" target="NyA0sl9m11uBEdN3ejfi-120">
          <mxGeometry relative="1" as="geometry">
            <mxPoint x="1100" y="770" as="targetPoint" />
          </mxGeometry>
        </mxCell>
        <mxCell id="NyA0sl9m11uBEdN3ejfi-122" value="Объем использованной памяти" style="ellipse;whiteSpace=wrap;html=1;fontSize=11;" vertex="1" parent="1">
          <mxGeometry x="1151" y="830" width="90" height="50" as="geometry" />
        </mxCell>
        <mxCell id="NyA0sl9m11uBEdN3ejfi-124" value="Объем свободной памяти" style="ellipse;whiteSpace=wrap;html=1;" vertex="1" parent="1">
          <mxGeometry x="1250" y="780" width="90" height="50" as="geometry" />
        </mxCell>
        <mxCell id="NyA0sl9m11uBEdN3ejfi-129" style="edgeStyle=none;shape=connector;rounded=0;orthogonalLoop=1;jettySize=auto;html=1;exitX=0.75;exitY=0.1;exitDx=0;exitDy=0;exitPerimeter=0;entryX=0;entryY=1;entryDx=0;entryDy=0;labelBackgroundColor=default;strokeColor=default;align=center;verticalAlign=middle;fontFamily=Helvetica;fontSize=11;fontColor=default;endArrow=none;endFill=0;" edge="1" parent="1" source="NyA0sl9m11uBEdN3ejfi-126" target="NyA0sl9m11uBEdN3ejfi-1">
          <mxGeometry relative="1" as="geometry" />
        </mxCell>
        <mxCell id="NyA0sl9m11uBEdN3ejfi-133" style="edgeStyle=none;shape=connector;rounded=0;orthogonalLoop=1;jettySize=auto;html=1;entryX=0;entryY=0.5;entryDx=0;entryDy=0;labelBackgroundColor=default;strokeColor=default;align=center;verticalAlign=middle;fontFamily=Helvetica;fontSize=11;fontColor=default;endArrow=none;endFill=0;" edge="1" parent="1" source="NyA0sl9m11uBEdN3ejfi-126" target="NyA0sl9m11uBEdN3ejfi-132">
          <mxGeometry relative="1" as="geometry" />
        </mxCell>
        <mxCell id="NyA0sl9m11uBEdN3ejfi-136" style="edgeStyle=none;shape=connector;rounded=0;orthogonalLoop=1;jettySize=auto;html=1;entryX=0.5;entryY=0;entryDx=0;entryDy=0;labelBackgroundColor=default;strokeColor=default;align=center;verticalAlign=middle;fontFamily=Helvetica;fontSize=11;fontColor=default;endArrow=none;endFill=0;" edge="1" parent="1" source="NyA0sl9m11uBEdN3ejfi-126" target="NyA0sl9m11uBEdN3ejfi-135">
          <mxGeometry relative="1" as="geometry" />
        </mxCell>
        <mxCell id="NyA0sl9m11uBEdN3ejfi-139" style="edgeStyle=none;shape=connector;rounded=0;orthogonalLoop=1;jettySize=auto;html=1;entryX=0;entryY=0.5;entryDx=0;entryDy=0;labelBackgroundColor=default;strokeColor=default;align=center;verticalAlign=middle;fontFamily=Helvetica;fontSize=11;fontColor=default;endArrow=none;endFill=0;" edge="1" parent="1" source="NyA0sl9m11uBEdN3ejfi-126" target="NyA0sl9m11uBEdN3ejfi-137">
          <mxGeometry relative="1" as="geometry" />
        </mxCell>
        <mxCell id="NyA0sl9m11uBEdN3ejfi-126" value="Пользователь" style="shape=umlActor;verticalLabelPosition=bottom;verticalAlign=top;html=1;outlineConnect=0;fontFamily=Helvetica;fontSize=15;fontColor=default;" vertex="1" parent="1">
          <mxGeometry x="380" y="820" width="30" height="60" as="geometry" />
        </mxCell>
        <mxCell id="NyA0sl9m11uBEdN3ejfi-132" value="&lt;span style=&quot;caret-color: rgb(0, 0, 0); color: rgb(0, 0, 0); font-family: Helvetica; font-size: 12px; font-style: normal; font-variant-caps: normal; font-weight: 400; letter-spacing: normal; text-align: center; text-indent: 0px; text-transform: none; word-spacing: 0px; -webkit-text-stroke-width: 0px; background-color: rgb(251, 251, 251); text-decoration: none; float: none; display: inline !important;&quot;&gt;Получить отчет о компонентах системы&lt;/span&gt;" style="ellipse;whiteSpace=wrap;html=1;" vertex="1" parent="1">
          <mxGeometry x="250" y="680" width="120" height="80" as="geometry" />
        </mxCell>
        <mxCell id="NyA0sl9m11uBEdN3ejfi-135" value="&lt;span style=&quot;caret-color: rgb(0, 0, 0); color: rgb(0, 0, 0); font-family: Helvetica; font-size: 12px; font-style: normal; font-variant-caps: normal; font-weight: 400; letter-spacing: normal; text-align: center; text-indent: 0px; text-transform: none; word-spacing: 0px; -webkit-text-stroke-width: 0px; background-color: rgb(251, 251, 251); text-decoration: none; float: none; display: inline !important;&quot;&gt;Получить доступ к терминалу&lt;/span&gt;" style="ellipse;whiteSpace=wrap;html=1;" vertex="1" parent="1">
          <mxGeometry x="340" y="1010" width="120" height="80" as="geometry" />
        </mxCell>
        <mxCell id="NyA0sl9m11uBEdN3ejfi-140" style="edgeStyle=none;shape=connector;rounded=0;orthogonalLoop=1;jettySize=auto;html=1;entryX=0.5;entryY=1;entryDx=0;entryDy=0;labelBackgroundColor=default;strokeColor=default;align=center;verticalAlign=middle;fontFamily=Helvetica;fontSize=11;fontColor=default;endArrow=block;endFill=0;" edge="1" parent="1" source="NyA0sl9m11uBEdN3ejfi-137" target="NyA0sl9m11uBEdN3ejfi-1">
          <mxGeometry relative="1" as="geometry" />
        </mxCell>
        <mxCell id="NyA0sl9m11uBEdN3ejfi-142" style="edgeStyle=none;shape=connector;rounded=0;orthogonalLoop=1;jettySize=auto;html=1;entryX=0.5;entryY=0;entryDx=0;entryDy=0;dashed=1;labelBackgroundColor=default;strokeColor=default;align=center;verticalAlign=middle;fontFamily=Helvetica;fontSize=11;fontColor=default;endArrow=classic;" edge="1" parent="1" target="NyA0sl9m11uBEdN3ejfi-141">
          <mxGeometry relative="1" as="geometry">
            <mxPoint x="756.2625662374903" y="1178.0465046324548" as="sourcePoint" />
          </mxGeometry>
        </mxCell>
        <mxCell id="NyA0sl9m11uBEdN3ejfi-144" style="edgeStyle=none;shape=connector;rounded=0;orthogonalLoop=1;jettySize=auto;html=1;entryX=0.5;entryY=0;entryDx=0;entryDy=0;dashed=1;labelBackgroundColor=default;strokeColor=default;align=center;verticalAlign=middle;fontFamily=Helvetica;fontSize=11;fontColor=default;endArrow=classic;" edge="1" parent="1" target="NyA0sl9m11uBEdN3ejfi-143">
          <mxGeometry relative="1" as="geometry">
            <mxPoint x="790.8196721312565" y="1180.654262295479" as="sourcePoint" />
          </mxGeometry>
        </mxCell>
        <mxCell id="NyA0sl9m11uBEdN3ejfi-150" style="edgeStyle=none;shape=connector;rounded=0;orthogonalLoop=1;jettySize=auto;html=1;entryX=0;entryY=0;entryDx=0;entryDy=0;dashed=1;labelBackgroundColor=default;strokeColor=default;align=center;verticalAlign=middle;fontFamily=Helvetica;fontSize=11;fontColor=default;endArrow=classic;" edge="1" parent="1" target="NyA0sl9m11uBEdN3ejfi-149">
          <mxGeometry relative="1" as="geometry">
            <mxPoint x="814.2110936767217" y="1174.1706557684302" as="sourcePoint" />
          </mxGeometry>
        </mxCell>
        <mxCell id="NyA0sl9m11uBEdN3ejfi-152" style="edgeStyle=none;shape=connector;rounded=0;orthogonalLoop=1;jettySize=auto;html=1;entryX=0;entryY=0.5;entryDx=0;entryDy=0;dashed=1;labelBackgroundColor=default;strokeColor=default;align=center;verticalAlign=middle;fontFamily=Helvetica;fontSize=11;fontColor=default;endArrow=classic;" edge="1" parent="1" target="NyA0sl9m11uBEdN3ejfi-151">
          <mxGeometry relative="1" as="geometry">
            <mxPoint x="833.0456964176674" y="1160.002293023368" as="sourcePoint" />
          </mxGeometry>
        </mxCell>
        <mxCell id="NyA0sl9m11uBEdN3ejfi-162" style="edgeStyle=none;shape=connector;rounded=0;orthogonalLoop=1;jettySize=auto;html=1;entryX=0;entryY=0.5;entryDx=0;entryDy=0;dashed=1;labelBackgroundColor=default;strokeColor=default;align=center;verticalAlign=middle;fontFamily=Helvetica;fontSize=11;fontColor=default;endArrow=classic;" edge="1" parent="1" source="NyA0sl9m11uBEdN3ejfi-137" target="NyA0sl9m11uBEdN3ejfi-161">
          <mxGeometry relative="1" as="geometry" />
        </mxCell>
        <mxCell id="NyA0sl9m11uBEdN3ejfi-137" value="&lt;span style=&quot;caret-color: rgb(0, 0, 0); color: rgb(0, 0, 0); font-family: Helvetica; font-size: 12px; font-style: normal; font-variant-caps: normal; font-weight: 400; letter-spacing: normal; text-align: center; text-indent: 0px; text-transform: none; word-spacing: 0px; -webkit-text-stroke-width: 0px; background-color: rgb(251, 251, 251); text-decoration: none; float: none; display: inline !important;&quot;&gt;Посмотреть визуализацию числовых данных&lt;/span&gt;" style="ellipse;whiteSpace=wrap;html=1;" vertex="1" parent="1">
          <mxGeometry x="720" y="1100" width="120" height="80" as="geometry" />
        </mxCell>
        <mxCell id="NyA0sl9m11uBEdN3ejfi-141" value="Скорость вращения вентиляторов" style="ellipse;whiteSpace=wrap;html=1;fontSize=11;" vertex="1" parent="1">
          <mxGeometry x="650" y="1271.31" width="90" height="50" as="geometry" />
        </mxCell>
        <mxCell id="NyA0sl9m11uBEdN3ejfi-146" style="edgeStyle=none;shape=connector;rounded=0;orthogonalLoop=1;jettySize=auto;html=1;entryX=0.5;entryY=0;entryDx=0;entryDy=0;dashed=1;labelBackgroundColor=default;strokeColor=default;align=center;verticalAlign=middle;fontFamily=Helvetica;fontSize=11;fontColor=default;endArrow=classic;" edge="1" parent="1" source="NyA0sl9m11uBEdN3ejfi-143" target="NyA0sl9m11uBEdN3ejfi-145">
          <mxGeometry relative="1" as="geometry" />
        </mxCell>
        <mxCell id="NyA0sl9m11uBEdN3ejfi-148" style="edgeStyle=none;shape=connector;rounded=0;orthogonalLoop=1;jettySize=auto;html=1;dashed=1;labelBackgroundColor=default;strokeColor=default;align=center;verticalAlign=middle;fontFamily=Helvetica;fontSize=11;fontColor=default;endArrow=classic;" edge="1" parent="1" source="NyA0sl9m11uBEdN3ejfi-143" target="NyA0sl9m11uBEdN3ejfi-147">
          <mxGeometry relative="1" as="geometry" />
        </mxCell>
        <mxCell id="NyA0sl9m11uBEdN3ejfi-143" value="Использование памяти" style="ellipse;whiteSpace=wrap;html=1;fontSize=11;" vertex="1" parent="1">
          <mxGeometry x="780" y="1301.31" width="90" height="50" as="geometry" />
        </mxCell>
        <mxCell id="NyA0sl9m11uBEdN3ejfi-145" value="Память GPU" style="ellipse;whiteSpace=wrap;html=1;fontSize=11;" vertex="1" parent="1">
          <mxGeometry x="720" y="1371.31" width="90" height="50" as="geometry" />
        </mxCell>
        <mxCell id="NyA0sl9m11uBEdN3ejfi-147" value="RAM" style="ellipse;whiteSpace=wrap;html=1;fontSize=11;" vertex="1" parent="1">
          <mxGeometry x="857" y="1371.31" width="90" height="50" as="geometry" />
        </mxCell>
        <mxCell id="NyA0sl9m11uBEdN3ejfi-149" value="Загруженность CPU" style="ellipse;whiteSpace=wrap;html=1;fontSize=11;" vertex="1" parent="1">
          <mxGeometry x="920" y="1281.31" width="90" height="50" as="geometry" />
        </mxCell>
        <mxCell id="NyA0sl9m11uBEdN3ejfi-154" style="edgeStyle=none;shape=connector;rounded=0;orthogonalLoop=1;jettySize=auto;html=1;entryX=0;entryY=0;entryDx=0;entryDy=0;dashed=1;labelBackgroundColor=default;strokeColor=default;align=center;verticalAlign=middle;fontFamily=Helvetica;fontSize=11;fontColor=default;endArrow=classic;" edge="1" parent="1" source="NyA0sl9m11uBEdN3ejfi-151" target="NyA0sl9m11uBEdN3ejfi-153">
          <mxGeometry relative="1" as="geometry" />
        </mxCell>
        <mxCell id="NyA0sl9m11uBEdN3ejfi-160" style="edgeStyle=none;shape=connector;rounded=0;orthogonalLoop=1;jettySize=auto;html=1;entryX=0;entryY=0.5;entryDx=0;entryDy=0;dashed=1;labelBackgroundColor=default;strokeColor=default;align=center;verticalAlign=middle;fontFamily=Helvetica;fontSize=11;fontColor=default;endArrow=classic;" edge="1" parent="1" source="NyA0sl9m11uBEdN3ejfi-151">
          <mxGeometry relative="1" as="geometry">
            <mxPoint x="1170" y="1246.31" as="targetPoint" />
          </mxGeometry>
        </mxCell>
        <mxCell id="NyA0sl9m11uBEdN3ejfi-151" value="Частота" style="ellipse;whiteSpace=wrap;html=1;fontSize=11;" vertex="1" parent="1">
          <mxGeometry x="990" y="1191.31" width="90" height="50" as="geometry" />
        </mxCell>
        <mxCell id="NyA0sl9m11uBEdN3ejfi-156" style="edgeStyle=none;shape=connector;rounded=0;orthogonalLoop=1;jettySize=auto;html=1;dashed=1;labelBackgroundColor=default;strokeColor=default;align=center;verticalAlign=middle;fontFamily=Helvetica;fontSize=11;fontColor=default;endArrow=classic;" edge="1" parent="1" source="NyA0sl9m11uBEdN3ejfi-153" target="NyA0sl9m11uBEdN3ejfi-155">
          <mxGeometry relative="1" as="geometry" />
        </mxCell>
        <mxCell id="NyA0sl9m11uBEdN3ejfi-153" value="GPU" style="ellipse;whiteSpace=wrap;html=1;fontSize=11;" vertex="1" parent="1">
          <mxGeometry x="1070" y="1281.31" width="90" height="50" as="geometry" />
        </mxCell>
        <mxCell id="NyA0sl9m11uBEdN3ejfi-155" value="Ядро" style="ellipse;whiteSpace=wrap;html=1;fontSize=11;" vertex="1" parent="1">
          <mxGeometry x="1020" y="1351.31" width="90" height="50" as="geometry" />
        </mxCell>
        <mxCell id="NyA0sl9m11uBEdN3ejfi-158" style="edgeStyle=none;shape=connector;rounded=0;orthogonalLoop=1;jettySize=auto;html=1;entryX=1;entryY=1;entryDx=0;entryDy=0;dashed=1;labelBackgroundColor=default;strokeColor=default;align=center;verticalAlign=middle;fontFamily=Helvetica;fontSize=11;fontColor=default;endArrow=classic;" edge="1" parent="1" source="NyA0sl9m11uBEdN3ejfi-157" target="NyA0sl9m11uBEdN3ejfi-153">
          <mxGeometry relative="1" as="geometry" />
        </mxCell>
        <mxCell id="NyA0sl9m11uBEdN3ejfi-157" value="Память" style="ellipse;whiteSpace=wrap;html=1;fontSize=11;" vertex="1" parent="1">
          <mxGeometry x="1140" y="1351.31" width="90" height="50" as="geometry" />
        </mxCell>
        <mxCell id="NyA0sl9m11uBEdN3ejfi-159" value="Средняя частота CPU" style="ellipse;whiteSpace=wrap;html=1;fontSize=11;" vertex="1" parent="1">
          <mxGeometry x="1170" y="1241.31" width="90" height="50" as="geometry" />
        </mxCell>
        <mxCell id="NyA0sl9m11uBEdN3ejfi-164" style="edgeStyle=none;shape=connector;rounded=0;orthogonalLoop=1;jettySize=auto;html=1;entryX=0;entryY=0.5;entryDx=0;entryDy=0;dashed=1;labelBackgroundColor=default;strokeColor=default;align=center;verticalAlign=middle;fontFamily=Helvetica;fontSize=11;fontColor=default;endArrow=classic;" edge="1" parent="1" source="NyA0sl9m11uBEdN3ejfi-161" target="NyA0sl9m11uBEdN3ejfi-163">
          <mxGeometry relative="1" as="geometry" />
        </mxCell>
        <mxCell id="NyA0sl9m11uBEdN3ejfi-167" style="edgeStyle=none;shape=connector;rounded=0;orthogonalLoop=1;jettySize=auto;html=1;entryX=0;entryY=0.5;entryDx=0;entryDy=0;dashed=1;labelBackgroundColor=default;strokeColor=default;align=center;verticalAlign=middle;fontFamily=Helvetica;fontSize=11;fontColor=default;endArrow=classic;" edge="1" parent="1" source="NyA0sl9m11uBEdN3ejfi-161" target="NyA0sl9m11uBEdN3ejfi-165">
          <mxGeometry relative="1" as="geometry" />
        </mxCell>
        <mxCell id="NyA0sl9m11uBEdN3ejfi-169" style="edgeStyle=none;shape=connector;rounded=0;orthogonalLoop=1;jettySize=auto;html=1;entryX=0;entryY=0;entryDx=0;entryDy=0;dashed=1;labelBackgroundColor=default;strokeColor=default;align=center;verticalAlign=middle;fontFamily=Helvetica;fontSize=11;fontColor=default;endArrow=classic;" edge="1" parent="1" source="NyA0sl9m11uBEdN3ejfi-161" target="NyA0sl9m11uBEdN3ejfi-168">
          <mxGeometry relative="1" as="geometry" />
        </mxCell>
        <mxCell id="NyA0sl9m11uBEdN3ejfi-171" style="edgeStyle=none;shape=connector;rounded=0;orthogonalLoop=1;jettySize=auto;html=1;entryX=0;entryY=1;entryDx=0;entryDy=0;dashed=1;labelBackgroundColor=default;strokeColor=default;align=center;verticalAlign=middle;fontFamily=Helvetica;fontSize=11;fontColor=default;endArrow=classic;" edge="1" parent="1" source="NyA0sl9m11uBEdN3ejfi-161" target="NyA0sl9m11uBEdN3ejfi-170">
          <mxGeometry relative="1" as="geometry" />
        </mxCell>
        <mxCell id="NyA0sl9m11uBEdN3ejfi-161" value="Температуры" style="ellipse;whiteSpace=wrap;html=1;fontSize=11;" vertex="1" parent="1">
          <mxGeometry x="1061" y="1050" width="90" height="50" as="geometry" />
        </mxCell>
        <mxCell id="NyA0sl9m11uBEdN3ejfi-163" value="Ядро GPU" style="ellipse;whiteSpace=wrap;html=1;fontSize=11;" vertex="1" parent="1">
          <mxGeometry x="1270" y="1020" width="90" height="50" as="geometry" />
        </mxCell>
        <mxCell id="NyA0sl9m11uBEdN3ejfi-165" value="CPU" style="ellipse;whiteSpace=wrap;html=1;fontSize=11;" vertex="1" parent="1">
          <mxGeometry x="1270" y="1091.31" width="90" height="50" as="geometry" />
        </mxCell>
        <mxCell id="NyA0sl9m11uBEdN3ejfi-168" value="Память GPU" style="ellipse;whiteSpace=wrap;html=1;fontSize=11;" vertex="1" parent="1">
          <mxGeometry x="1210" y="1160" width="90" height="50" as="geometry" />
        </mxCell>
        <mxCell id="NyA0sl9m11uBEdN3ejfi-170" value="Сенсоры на материнской плате" style="ellipse;whiteSpace=wrap;html=1;fontSize=11;" vertex="1" parent="1">
          <mxGeometry x="1196" y="950" width="90" height="50" as="geometry" />
        </mxCell>
        <mxCell id="NyA0sl9m11uBEdN3ejfi-177" style="edgeStyle=none;shape=connector;rounded=0;orthogonalLoop=1;jettySize=auto;html=1;labelBackgroundColor=default;strokeColor=default;align=center;verticalAlign=middle;fontFamily=Helvetica;fontSize=11;fontColor=default;endArrow=block;endFill=0;" edge="1" parent="1" source="NyA0sl9m11uBEdN3ejfi-172" target="NyA0sl9m11uBEdN3ejfi-126">
          <mxGeometry relative="1" as="geometry" />
        </mxCell>
        <mxCell id="NyA0sl9m11uBEdN3ejfi-172" value="Технические специалисты&lt;br&gt;в компаниях" style="shape=umlActor;verticalLabelPosition=bottom;verticalAlign=top;html=1;outlineConnect=0;fontFamily=Helvetica;fontSize=15;fontColor=default;" vertex="1" parent="1">
          <mxGeometry x="90" y="760" width="30" height="60" as="geometry" />
        </mxCell>
        <mxCell id="NyA0sl9m11uBEdN3ejfi-179" style="edgeStyle=none;shape=connector;rounded=0;orthogonalLoop=1;jettySize=auto;html=1;labelBackgroundColor=default;strokeColor=default;align=center;verticalAlign=middle;fontFamily=Helvetica;fontSize=11;fontColor=default;endArrow=block;endFill=0;" edge="1" parent="1" source="NyA0sl9m11uBEdN3ejfi-173" target="NyA0sl9m11uBEdN3ejfi-126">
          <mxGeometry relative="1" as="geometry" />
        </mxCell>
        <mxCell id="NyA0sl9m11uBEdN3ejfi-173" value="Работники компьютерных&lt;br&gt;сервисов" style="shape=umlActor;verticalLabelPosition=bottom;verticalAlign=top;html=1;outlineConnect=0;fontFamily=Helvetica;fontSize=15;fontColor=default;" vertex="1" parent="1">
          <mxGeometry x="60" y="990" width="30" height="60" as="geometry" />
        </mxCell>
        <mxCell id="NyA0sl9m11uBEdN3ejfi-180" style="edgeStyle=none;shape=connector;rounded=0;orthogonalLoop=1;jettySize=auto;html=1;labelBackgroundColor=default;strokeColor=default;align=center;verticalAlign=middle;fontFamily=Helvetica;fontSize=11;fontColor=default;endArrow=block;endFill=0;" edge="1" parent="1" source="NyA0sl9m11uBEdN3ejfi-174" target="NyA0sl9m11uBEdN3ejfi-126">
          <mxGeometry relative="1" as="geometry" />
        </mxCell>
        <mxCell id="NyA0sl9m11uBEdN3ejfi-174" value="Компьютерные энтузиасты" style="shape=umlActor;verticalLabelPosition=bottom;verticalAlign=top;html=1;outlineConnect=0;fontFamily=Helvetica;fontSize=15;fontColor=default;" vertex="1" parent="1">
          <mxGeometry x="120" y="1110" width="30" height="60" as="geometry" />
        </mxCell>
        <mxCell id="NyA0sl9m11uBEdN3ejfi-178" style="edgeStyle=none;shape=connector;rounded=0;orthogonalLoop=1;jettySize=auto;html=1;labelBackgroundColor=default;strokeColor=default;align=center;verticalAlign=middle;fontFamily=Helvetica;fontSize=11;fontColor=default;endArrow=block;endFill=0;" edge="1" parent="1" source="NyA0sl9m11uBEdN3ejfi-175" target="NyA0sl9m11uBEdN3ejfi-126">
          <mxGeometry relative="1" as="geometry" />
        </mxCell>
        <mxCell id="NyA0sl9m11uBEdN3ejfi-175" value="Специалисты по&lt;br&gt;кибербезопасности" style="shape=umlActor;verticalLabelPosition=bottom;verticalAlign=top;html=1;outlineConnect=0;fontFamily=Helvetica;fontSize=15;fontColor=default;" vertex="1" parent="1">
          <mxGeometry x="50" y="880" width="30" height="60" as="geometry" />
        </mxCell>
        <mxCell id="NyA0sl9m11uBEdN3ejfi-187" style="edgeStyle=none;shape=connector;rounded=0;orthogonalLoop=1;jettySize=auto;html=1;entryX=1;entryY=0.5;entryDx=0;entryDy=0;dashed=1;labelBackgroundColor=default;strokeColor=default;align=center;verticalAlign=middle;fontFamily=Helvetica;fontSize=11;fontColor=default;endArrow=classic;" edge="1" parent="1" source="NyA0sl9m11uBEdN3ejfi-185" target="NyA0sl9m11uBEdN3ejfi-186">
          <mxGeometry relative="1" as="geometry" />
        </mxCell>
        <mxCell id="NyA0sl9m11uBEdN3ejfi-189" style="edgeStyle=none;shape=connector;rounded=0;orthogonalLoop=1;jettySize=auto;html=1;entryX=1;entryY=1;entryDx=0;entryDy=0;dashed=1;labelBackgroundColor=default;strokeColor=default;align=center;verticalAlign=middle;fontFamily=Helvetica;fontSize=11;fontColor=default;endArrow=classic;" edge="1" parent="1" source="NyA0sl9m11uBEdN3ejfi-185" target="NyA0sl9m11uBEdN3ejfi-188">
          <mxGeometry relative="1" as="geometry" />
        </mxCell>
        <mxCell id="NyA0sl9m11uBEdN3ejfi-191" style="edgeStyle=none;shape=connector;rounded=0;orthogonalLoop=1;jettySize=auto;html=1;entryX=0.5;entryY=1;entryDx=0;entryDy=0;dashed=1;labelBackgroundColor=default;strokeColor=default;align=center;verticalAlign=middle;fontFamily=Helvetica;fontSize=11;fontColor=default;endArrow=classic;" edge="1" parent="1" source="NyA0sl9m11uBEdN3ejfi-185" target="NyA0sl9m11uBEdN3ejfi-190">
          <mxGeometry relative="1" as="geometry" />
        </mxCell>
        <mxCell id="NyA0sl9m11uBEdN3ejfi-193" style="edgeStyle=none;shape=connector;rounded=0;orthogonalLoop=1;jettySize=auto;html=1;entryX=0;entryY=1;entryDx=0;entryDy=0;dashed=1;labelBackgroundColor=default;strokeColor=default;align=center;verticalAlign=middle;fontFamily=Helvetica;fontSize=11;fontColor=default;endArrow=classic;" edge="1" parent="1" source="NyA0sl9m11uBEdN3ejfi-185" target="NyA0sl9m11uBEdN3ejfi-192">
          <mxGeometry relative="1" as="geometry" />
        </mxCell>
        <mxCell id="NyA0sl9m11uBEdN3ejfi-195" style="edgeStyle=none;shape=connector;rounded=0;orthogonalLoop=1;jettySize=auto;html=1;entryX=0;entryY=0.5;entryDx=0;entryDy=0;dashed=1;labelBackgroundColor=default;strokeColor=default;align=center;verticalAlign=middle;fontFamily=Helvetica;fontSize=11;fontColor=default;endArrow=classic;" edge="1" parent="1" source="NyA0sl9m11uBEdN3ejfi-185" target="NyA0sl9m11uBEdN3ejfi-194">
          <mxGeometry relative="1" as="geometry" />
        </mxCell>
        <mxCell id="NyA0sl9m11uBEdN3ejfi-185" value="Физические диски" style="ellipse;whiteSpace=wrap;html=1;" vertex="1" parent="1">
          <mxGeometry x="350" y="-110" width="90" height="50" as="geometry" />
        </mxCell>
        <mxCell id="NyA0sl9m11uBEdN3ejfi-186" value="Загруженность диска" style="ellipse;whiteSpace=wrap;html=1;" vertex="1" parent="1">
          <mxGeometry x="120" y="-130" width="90" height="50" as="geometry" />
        </mxCell>
        <mxCell id="NyA0sl9m11uBEdN3ejfi-188" value="Свободное место на диске" style="ellipse;whiteSpace=wrap;html=1;" vertex="1" parent="1">
          <mxGeometry x="210" y="-220" width="90" height="50" as="geometry" />
        </mxCell>
        <mxCell id="NyA0sl9m11uBEdN3ejfi-190" value="Занятое место на диске" style="ellipse;whiteSpace=wrap;html=1;" vertex="1" parent="1">
          <mxGeometry x="360" y="-240" width="90" height="50" as="geometry" />
        </mxCell>
        <mxCell id="NyA0sl9m11uBEdN3ejfi-192" value="Общий объем диска" style="ellipse;whiteSpace=wrap;html=1;" vertex="1" parent="1">
          <mxGeometry x="480" y="-200" width="90" height="50" as="geometry" />
        </mxCell>
        <mxCell id="NyA0sl9m11uBEdN3ejfi-194" value="Название диска" style="ellipse;whiteSpace=wrap;html=1;" vertex="1" parent="1">
          <mxGeometry x="490" y="-100" width="90" height="50" as="geometry" />
        </mxCell>
        <mxCell id="NyA0sl9m11uBEdN3ejfi-199" style="edgeStyle=none;shape=connector;rounded=0;orthogonalLoop=1;jettySize=auto;html=1;entryX=0.5;entryY=1;entryDx=0;entryDy=0;dashed=1;labelBackgroundColor=default;strokeColor=default;align=center;verticalAlign=middle;fontFamily=Helvetica;fontSize=11;fontColor=default;endArrow=classic;" edge="1" parent="1" source="NyA0sl9m11uBEdN3ejfi-197" target="NyA0sl9m11uBEdN3ejfi-198">
          <mxGeometry relative="1" as="geometry" />
        </mxCell>
        <mxCell id="NyA0sl9m11uBEdN3ejfi-201" style="edgeStyle=none;shape=connector;rounded=0;orthogonalLoop=1;jettySize=auto;html=1;dashed=1;labelBackgroundColor=default;strokeColor=default;align=center;verticalAlign=middle;fontFamily=Helvetica;fontSize=11;fontColor=default;endArrow=classic;" edge="1" parent="1" source="NyA0sl9m11uBEdN3ejfi-197" target="NyA0sl9m11uBEdN3ejfi-200">
          <mxGeometry relative="1" as="geometry" />
        </mxCell>
        <mxCell id="NyA0sl9m11uBEdN3ejfi-203" style="edgeStyle=none;shape=connector;rounded=0;orthogonalLoop=1;jettySize=auto;html=1;entryX=0;entryY=1;entryDx=0;entryDy=0;dashed=1;labelBackgroundColor=default;strokeColor=default;align=center;verticalAlign=middle;fontFamily=Helvetica;fontSize=11;fontColor=default;endArrow=classic;" edge="1" parent="1" source="NyA0sl9m11uBEdN3ejfi-197" target="NyA0sl9m11uBEdN3ejfi-202">
          <mxGeometry relative="1" as="geometry" />
        </mxCell>
        <mxCell id="NyA0sl9m11uBEdN3ejfi-197" value="Логические диски" style="ellipse;whiteSpace=wrap;html=1;" vertex="1" parent="1">
          <mxGeometry x="602" y="-280" width="90" height="50" as="geometry" />
        </mxCell>
        <mxCell id="NyA0sl9m11uBEdN3ejfi-198" value="Тип файловой системы тома" style="ellipse;whiteSpace=wrap;html=1;" vertex="1" parent="1">
          <mxGeometry x="497" y="-390" width="90" height="50" as="geometry" />
        </mxCell>
        <mxCell id="NyA0sl9m11uBEdN3ejfi-200" value="Размер тома" style="ellipse;whiteSpace=wrap;html=1;" vertex="1" parent="1">
          <mxGeometry x="617" y="-440" width="90" height="50" as="geometry" />
        </mxCell>
        <mxCell id="NyA0sl9m11uBEdN3ejfi-202" value="Том диска" style="ellipse;whiteSpace=wrap;html=1;" vertex="1" parent="1">
          <mxGeometry x="737" y="-400" width="90" height="50" as="geometry" />
        </mxCell>
        <mxCell id="NyA0sl9m11uBEdN3ejfi-209" style="edgeStyle=none;shape=connector;rounded=0;orthogonalLoop=1;jettySize=auto;html=1;dashed=1;labelBackgroundColor=default;strokeColor=default;align=center;verticalAlign=middle;fontFamily=Helvetica;fontSize=11;fontColor=default;endArrow=classic;" edge="1" parent="1" source="NyA0sl9m11uBEdN3ejfi-205" target="NyA0sl9m11uBEdN3ejfi-208">
          <mxGeometry relative="1" as="geometry" />
        </mxCell>
        <mxCell id="NyA0sl9m11uBEdN3ejfi-221" style="edgeStyle=none;shape=connector;rounded=0;orthogonalLoop=1;jettySize=auto;html=1;dashed=1;labelBackgroundColor=default;strokeColor=default;align=center;verticalAlign=middle;fontFamily=Helvetica;fontSize=11;fontColor=default;endArrow=classic;" edge="1" parent="1" source="NyA0sl9m11uBEdN3ejfi-205" target="NyA0sl9m11uBEdN3ejfi-220">
          <mxGeometry relative="1" as="geometry" />
        </mxCell>
        <mxCell id="NyA0sl9m11uBEdN3ejfi-205" value="Материнская плата" style="ellipse;whiteSpace=wrap;html=1;" vertex="1" parent="1">
          <mxGeometry x="880" y="-270" width="90" height="50" as="geometry" />
        </mxCell>
        <mxCell id="NyA0sl9m11uBEdN3ejfi-211" style="edgeStyle=none;shape=connector;rounded=0;orthogonalLoop=1;jettySize=auto;html=1;dashed=1;labelBackgroundColor=default;strokeColor=default;align=center;verticalAlign=middle;fontFamily=Helvetica;fontSize=11;fontColor=default;endArrow=classic;" edge="1" parent="1" source="NyA0sl9m11uBEdN3ejfi-208" target="NyA0sl9m11uBEdN3ejfi-210">
          <mxGeometry relative="1" as="geometry" />
        </mxCell>
        <mxCell id="NyA0sl9m11uBEdN3ejfi-213" style="edgeStyle=none;shape=connector;rounded=0;orthogonalLoop=1;jettySize=auto;html=1;dashed=1;labelBackgroundColor=default;strokeColor=default;align=center;verticalAlign=middle;fontFamily=Helvetica;fontSize=11;fontColor=default;endArrow=classic;" edge="1" parent="1" source="NyA0sl9m11uBEdN3ejfi-208" target="NyA0sl9m11uBEdN3ejfi-212">
          <mxGeometry relative="1" as="geometry" />
        </mxCell>
        <mxCell id="NyA0sl9m11uBEdN3ejfi-215" style="edgeStyle=none;shape=connector;rounded=0;orthogonalLoop=1;jettySize=auto;html=1;dashed=1;labelBackgroundColor=default;strokeColor=default;align=center;verticalAlign=middle;fontFamily=Helvetica;fontSize=11;fontColor=default;endArrow=classic;" edge="1" parent="1" source="NyA0sl9m11uBEdN3ejfi-208" target="NyA0sl9m11uBEdN3ejfi-214">
          <mxGeometry relative="1" as="geometry" />
        </mxCell>
        <mxCell id="NyA0sl9m11uBEdN3ejfi-217" style="edgeStyle=none;shape=connector;rounded=0;orthogonalLoop=1;jettySize=auto;html=1;dashed=1;labelBackgroundColor=default;strokeColor=default;align=center;verticalAlign=middle;fontFamily=Helvetica;fontSize=11;fontColor=default;endArrow=classic;" edge="1" parent="1" source="NyA0sl9m11uBEdN3ejfi-208" target="NyA0sl9m11uBEdN3ejfi-216">
          <mxGeometry relative="1" as="geometry" />
        </mxCell>
        <mxCell id="NyA0sl9m11uBEdN3ejfi-219" style="edgeStyle=none;shape=connector;rounded=0;orthogonalLoop=1;jettySize=auto;html=1;dashed=1;labelBackgroundColor=default;strokeColor=default;align=center;verticalAlign=middle;fontFamily=Helvetica;fontSize=11;fontColor=default;endArrow=classic;" edge="1" parent="1" source="NyA0sl9m11uBEdN3ejfi-208" target="NyA0sl9m11uBEdN3ejfi-218">
          <mxGeometry relative="1" as="geometry" />
        </mxCell>
        <mxCell id="NyA0sl9m11uBEdN3ejfi-208" value="Статическая информация" style="ellipse;whiteSpace=wrap;html=1;" vertex="1" parent="1">
          <mxGeometry x="940" y="-430" width="90" height="50" as="geometry" />
        </mxCell>
        <mxCell id="NyA0sl9m11uBEdN3ejfi-210" value="Название" style="ellipse;whiteSpace=wrap;html=1;" vertex="1" parent="1">
          <mxGeometry x="830" y="-520" width="90" height="50" as="geometry" />
        </mxCell>
        <mxCell id="NyA0sl9m11uBEdN3ejfi-212" value="Производитель" style="ellipse;whiteSpace=wrap;html=1;" vertex="1" parent="1">
          <mxGeometry x="900" y="-580" width="90" height="50" as="geometry" />
        </mxCell>
        <mxCell id="NyA0sl9m11uBEdN3ejfi-214" value="Ссылка на сайт производителя" style="ellipse;whiteSpace=wrap;html=1;fontSize=11;" vertex="1" parent="1">
          <mxGeometry x="1020" y="-584" width="90" height="50" as="geometry" />
        </mxCell>
        <mxCell id="NyA0sl9m11uBEdN3ejfi-216" value="Текущая версия BIOS" style="ellipse;whiteSpace=wrap;html=1;" vertex="1" parent="1">
          <mxGeometry x="1100" y="-530" width="90" height="50" as="geometry" />
        </mxCell>
        <mxCell id="NyA0sl9m11uBEdN3ejfi-218" value="Ссылка на сайт с официальным ПО" style="ellipse;whiteSpace=wrap;html=1;fontSize=10;" vertex="1" parent="1">
          <mxGeometry x="1100" y="-450" width="90" height="50" as="geometry" />
        </mxCell>
        <mxCell id="NyA0sl9m11uBEdN3ejfi-223" style="edgeStyle=none;shape=connector;rounded=0;orthogonalLoop=1;jettySize=auto;html=1;dashed=1;labelBackgroundColor=default;strokeColor=default;align=center;verticalAlign=middle;fontFamily=Helvetica;fontSize=11;fontColor=default;endArrow=classic;" edge="1" parent="1" source="NyA0sl9m11uBEdN3ejfi-220" target="NyA0sl9m11uBEdN3ejfi-222">
          <mxGeometry relative="1" as="geometry" />
        </mxCell>
        <mxCell id="NyA0sl9m11uBEdN3ejfi-225" style="edgeStyle=none;shape=connector;rounded=0;orthogonalLoop=1;jettySize=auto;html=1;dashed=1;labelBackgroundColor=default;strokeColor=default;align=center;verticalAlign=middle;fontFamily=Helvetica;fontSize=11;fontColor=default;endArrow=classic;" edge="1" parent="1" source="NyA0sl9m11uBEdN3ejfi-220" target="NyA0sl9m11uBEdN3ejfi-224">
          <mxGeometry relative="1" as="geometry" />
        </mxCell>
        <mxCell id="NyA0sl9m11uBEdN3ejfi-227" style="edgeStyle=none;shape=connector;rounded=0;orthogonalLoop=1;jettySize=auto;html=1;dashed=1;labelBackgroundColor=default;strokeColor=default;align=center;verticalAlign=middle;fontFamily=Helvetica;fontSize=11;fontColor=default;endArrow=classic;" edge="1" parent="1" source="NyA0sl9m11uBEdN3ejfi-220" target="NyA0sl9m11uBEdN3ejfi-226">
          <mxGeometry relative="1" as="geometry" />
        </mxCell>
        <mxCell id="NyA0sl9m11uBEdN3ejfi-220" value="Числовая информация" style="ellipse;whiteSpace=wrap;html=1;" vertex="1" parent="1">
          <mxGeometry x="1120" y="-290" width="90" height="50" as="geometry" />
        </mxCell>
        <mxCell id="NyA0sl9m11uBEdN3ejfi-222" value="Температура датчиков" style="ellipse;whiteSpace=wrap;html=1;" vertex="1" parent="1">
          <mxGeometry x="1230" y="-400" width="90" height="50" as="geometry" />
        </mxCell>
        <mxCell id="NyA0sl9m11uBEdN3ejfi-224" value="Вольтаж датчиков" style="ellipse;whiteSpace=wrap;html=1;" vertex="1" parent="1">
          <mxGeometry x="1286" y="-310" width="90" height="50" as="geometry" />
        </mxCell>
        <mxCell id="NyA0sl9m11uBEdN3ejfi-226" value="Скорость вентиляторов" style="ellipse;whiteSpace=wrap;html=1;" vertex="1" parent="1">
          <mxGeometry x="1280" y="-210" width="90" height="50" as="geometry" />
        </mxCell>
      </root>
    </mxGraphModel>
  </diagram>
</mxfile>
